<?xml version="1.0" encoding="UTF-8" standalone="no"?>
<!DOCTYPE svg PUBLIC "-//W3C//DTD SVG 1.1//EN" "http://www.w3.org/Graphics/SVG/1.1/DTD/svg11.dtd">
<svg width="100%" height="100%" viewBox="0 0 1683 426" version="1.1" xmlns="http://www.w3.org/2000/svg" xmlns:xlink="http://www.w3.org/1999/xlink" xml:space="preserve" xmlns:serif="http://www.serif.com/" style="fill-rule:evenodd;clip-rule:evenodd;stroke-linecap:round;stroke-linejoin:round;stroke-miterlimit:1.5;">
    <g transform="matrix(1,0,0,1,0,-1728)">
        <g id="Layer5">
        </g>
        <g id="Layer6">
        </g>
        <g id="Layer4">
            <g transform="matrix(-1,0,0,1,1708.31,-43.1673)">
                <path d="M1203.19,2132.45C1186.47,2148.1 1164,2157.69 1139.31,2157.69C1114.62,2157.69 1092.16,2148.1 1075.43,2132.45L45.476,2132.45L45.476,2132.22C-3.082,2128.85 -41.48,2088.33 -41.48,2038.92C-41.48,1987.31 0.428,1945.4 52.047,1945.4C64.864,1945.4 77.083,1947.98 88.212,1952.66C97.627,1930.27 119.777,1914.53 145.575,1914.53C168.276,1914.53 188.153,1926.72 199.014,1944.9C201.654,1944.67 204.322,1944.56 207.017,1944.56C214.76,1944.56 222.284,1945.5 229.476,1947.28C246.636,1927.24 272.118,1914.53 300.544,1914.53C308.685,1914.53 316.584,1915.57 324.116,1917.53C324.085,1916.54 324.069,1915.53 324.069,1914.53C324.069,1862.91 365.977,1821 417.597,1821C446.023,1821 471.505,1833.71 488.665,1853.75C495.857,1851.98 503.381,1851.03 511.124,1851.03C552.285,1851.03 587.272,1877.68 599.76,1914.65C601.378,1914.57 603.01,1914.53 604.652,1914.53C609.091,1914.53 613.458,1914.84 617.739,1915.44C628.401,1896.48 648.712,1883.66 671.994,1883.66C706.04,1883.66 733.735,1911.07 734.187,1945.02C749.471,1946.52 763.679,1951.71 775.907,1959.69C781.331,1913.22 820.881,1877.11 868.799,1877.11C891.527,1877.11 912.373,1885.23 928.586,1898.73C939.662,1888.57 954.423,1882.36 970.623,1882.36C994.395,1882.36 1015.07,1895.73 1025.54,1915.35C1061.31,1920.1 1090.72,1945.11 1101.86,1978.45C1106.49,1976.42 1111.31,1974.76 1116.29,1973.5C1127.33,1956.11 1146.75,1944.56 1168.85,1944.56C1172.63,1944.56 1176.33,1944.9 1179.93,1945.55C1190.9,1906.1 1227.11,1877.11 1270.05,1877.11C1301.35,1877.11 1329.09,1892.52 1346.06,1916.17C1351.74,1915.09 1357.59,1914.53 1363.57,1914.53C1366.12,1914.53 1368.64,1914.63 1371.14,1914.83C1381.69,1895.49 1402.21,1882.36 1425.77,1882.36C1460.1,1882.36 1487.97,1910.23 1487.97,1944.56C1487.97,1946.57 1487.88,1948.56 1487.69,1950.52C1497.58,1953.95 1506.71,1958.98 1514.78,1965.32C1527.3,1941.03 1550.14,1922.91 1577.49,1916.78C1590.64,1893.11 1615.63,1877.11 1644.28,1877.11C1685.12,1877.11 1718.54,1909.64 1720.78,1950.58C1757.31,1963.3 1783.56,1998.07 1783.56,2038.92C1783.56,2090.54 1741.65,2132.45 1690.03,2132.45L1203.19,2132.45ZM394.041,2005.64C394.046,2005.84 394.05,2006.04 394.055,2006.24L394.063,2006.76L402.011,2006.76C399.31,2006.31 396.647,2005.74 394.024,2005.05L394.041,2005.64ZM440.055,2005.34C437.796,2005.89 435.503,2006.37 433.182,2006.76L441.3,2006.76C440.881,2006.29 440.467,2005.82 440.055,2005.34Z" style="fill:rgb(149,190,234);stroke:white;stroke-width:1px;"/>
            </g>
            <g transform="matrix(1,0,0,1,-33.767,2.34635)">
                <path d="M1203.19,2132.45C1186.47,2148.1 1164,2157.69 1139.31,2157.69C1114.62,2157.69 1092.16,2148.1 1075.43,2132.45L45.476,2132.45L45.476,2132.22C-3.082,2128.85 -41.48,2088.33 -41.48,2038.92C-41.48,1987.31 0.428,1945.4 52.047,1945.4C64.864,1945.4 77.083,1947.98 88.212,1952.66C97.627,1930.27 119.777,1914.53 145.575,1914.53C168.276,1914.53 188.153,1926.72 199.014,1944.9C201.654,1944.67 204.322,1944.56 207.017,1944.56C214.76,1944.56 222.284,1945.5 229.476,1947.28C246.636,1927.24 272.118,1914.53 300.544,1914.53C308.685,1914.53 316.584,1915.57 324.116,1917.53C324.085,1916.54 324.069,1915.53 324.069,1914.53C324.069,1862.91 365.977,1821 417.597,1821C446.023,1821 471.505,1833.71 488.665,1853.75C495.857,1851.98 503.381,1851.03 511.124,1851.03C552.285,1851.03 587.272,1877.68 599.76,1914.65C601.378,1914.57 603.01,1914.53 604.652,1914.53C609.091,1914.53 613.458,1914.84 617.739,1915.44C628.401,1896.48 648.712,1883.66 671.994,1883.66C706.04,1883.66 733.735,1911.07 734.187,1945.02C749.471,1946.52 763.679,1951.71 775.907,1959.69C781.331,1913.22 820.881,1877.11 868.799,1877.11C891.527,1877.11 912.373,1885.23 928.586,1898.73C939.662,1888.57 954.423,1882.36 970.623,1882.36C994.395,1882.36 1015.07,1895.73 1025.54,1915.35C1061.31,1920.1 1090.72,1945.11 1101.86,1978.45C1106.49,1976.42 1111.31,1974.76 1116.29,1973.5C1127.33,1956.11 1146.75,1944.56 1168.85,1944.56C1172.63,1944.56 1176.33,1944.9 1179.93,1945.55C1190.9,1906.1 1227.11,1877.11 1270.05,1877.11C1301.35,1877.11 1329.09,1892.52 1346.06,1916.17C1351.74,1915.09 1357.59,1914.53 1363.57,1914.53C1366.12,1914.53 1368.64,1914.63 1371.14,1914.83C1381.69,1895.49 1402.21,1882.36 1425.77,1882.36C1460.1,1882.36 1487.97,1910.23 1487.97,1944.56C1487.97,1946.57 1487.88,1948.56 1487.69,1950.52C1497.58,1953.95 1506.71,1958.98 1514.78,1965.32C1527.3,1941.03 1550.14,1922.91 1577.49,1916.78C1590.64,1893.11 1615.63,1877.11 1644.28,1877.11C1685.12,1877.11 1718.54,1909.64 1720.78,1950.58C1757.31,1963.3 1783.56,1998.07 1783.56,2038.92C1783.56,2090.54 1741.65,2132.45 1690.03,2132.45L1203.19,2132.45ZM394.041,2005.64C394.046,2005.84 394.05,2006.04 394.055,2006.24L394.063,2006.76L402.011,2006.76C399.31,2006.31 396.647,2005.74 394.024,2005.05L394.041,2005.64ZM440.055,2005.34C437.796,2005.89 435.503,2006.37 433.182,2006.76L441.3,2006.76C440.881,2006.29 440.467,2005.82 440.055,2005.34Z" style="fill:white;stroke:white;stroke-width:1px;"/>
            </g>
            <path d="M673.811,2022.13C678.739,2003.66 695.232,1990.07 714.795,1990.07C730.698,1990.07 744.572,1999.05 751.855,2012.33C754.778,2011.91 757.762,2011.7 760.794,2011.7C761.915,2011.7 763.03,2011.73 764.135,2011.78C772.666,1985.88 796.564,1967.22 824.68,1967.22C829.968,1967.22 835.108,1967.88 840.02,1969.12C851.742,1955.08 869.148,1946.18 888.565,1946.18C923.824,1946.18 952.451,1975.54 952.451,2011.7C952.451,2012.4 952.44,2013.1 952.418,2013.8C957.564,2012.43 962.959,2011.7 968.52,2011.7C987.937,2011.7 1005.34,2020.6 1017.06,2034.64C1021.98,2033.39 1027.12,2032.74 1032.4,2032.74C1034.25,2032.74 1036.07,2032.82 1037.87,2032.97C1045.29,2020.23 1058.87,2011.7 1074.37,2011.7C1084.33,2011.7 1093.5,2015.22 1100.75,2021.11C1103.78,2020.52 1106.93,2020.21 1110.16,2020.21C1121.23,2020.21 1131.31,2023.88 1138.87,2029.89C1149.95,2021.9 1164.19,2017.1 1179.71,2017.1C1212.44,2017.1 1239.46,2038.46 1243.16,2065.94C1251.52,2061.22 1261.22,2058.15 1271.66,2057.26C1271.97,2037.18 1290.89,2020.97 1314.14,2020.97C1330.05,2020.97 1343.92,2028.55 1351.2,2039.77C1354.13,2039.41 1357.11,2039.23 1360.14,2039.23C1361.26,2039.23 1362.38,2039.25 1363.49,2039.3C1372.02,2017.44 1395.91,2001.68 1424.03,2001.68C1429.32,2001.68 1434.46,2002.24 1439.37,2003.29C1451.09,1991.43 1468.5,1983.92 1487.91,1983.92C1523.17,1983.92 1551.8,2008.7 1551.8,2039.23C1551.8,2039.82 1551.79,2040.42 1551.77,2041C1556.91,2039.85 1562.31,2039.23 1567.87,2039.23C1587.29,2039.23 1604.69,2046.75 1616.41,2058.6C1621.33,2057.55 1626.47,2056.99 1631.75,2056.99C1633.6,2056.99 1635.42,2057.06 1637.22,2057.19C1644.64,2046.44 1658.22,2039.23 1673.72,2039.23C1691.35,2039.23 1706.48,2048.54 1712.91,2061.78C1720.51,2059.01 1728.85,2057.49 1737.61,2057.49C1772.87,2057.49 1801.49,2082.27 1801.49,2112.8C1801.49,2142.02 1775.27,2165.98 1742.1,2167.98L1742.1,2168.11L1038.57,2168.11C1027.14,2177.37 1011.8,2183.04 994.934,2183.04C978.069,2183.04 962.722,2177.37 951.3,2168.11L618.755,2168.11C610.585,2168.11 602.772,2166.78 595.591,2164.36L439.218,2164.36C427.796,2175.32 412.449,2182.04 395.584,2182.04C378.72,2182.04 363.373,2175.32 351.95,2164.36L19.405,2164.36C-15.854,2164.36 -44.48,2135 -44.48,2098.84C-44.48,2070.22 -26.551,2045.87 -1.598,2036.95C-0.065,2008.28 22.764,1985.48 50.662,1985.48C70.225,1985.48 87.296,1996.69 96.278,2013.28C114.963,2017.57 130.566,2030.26 139.113,2047.28C144.627,2042.84 150.867,2039.31 157.621,2036.91C157.494,2035.54 157.428,2034.14 157.428,2032.74C157.428,2008.69 176.465,1989.16 199.914,1989.16C216.009,1989.16 230.026,1998.36 237.234,2011.91C238.939,2011.77 240.662,2011.7 242.4,2011.7C246.486,2011.7 250.484,2012.09 254.36,2012.84C265.956,1996.28 284.901,1985.48 306.285,1985.48C335.611,1985.48 360.347,2005.79 367.842,2033.42C370.297,2032.97 372.827,2032.74 375.411,2032.74C390.505,2032.74 403.771,2040.82 411.309,2053C414.713,2053.89 418.008,2055.05 421.169,2056.47C428.774,2033.12 448.867,2015.6 473.301,2012.27C480.451,1998.53 494.573,1989.16 510.811,1989.16C521.877,1989.16 531.96,1993.51 539.525,2000.63C550.6,1991.17 564.839,1985.48 580.363,1985.48C604.205,1985.48 625.013,1998.9 635.988,2018.77C640.451,2017.68 645.154,2017.1 650.011,2017.1C658.58,2017.1 666.671,2018.91 673.811,2022.13ZM1472.57,2092.93C1474.12,2093.26 1475.68,2093.54 1477.27,2093.78L1471.72,2093.78C1472.01,2093.5 1472.29,2093.22 1472.57,2092.93ZM1504,2093.11L1503.99,2093.78L1498.56,2093.78C1500.41,2093.51 1502.22,2093.17 1504.02,2092.77L1504,2093.11Z" style="fill:rgb(206,221,238);"/>
        </g>
    </g>
</svg>
