<?xml version="1.0" encoding="UTF-8" standalone="no"?>
<!DOCTYPE svg PUBLIC "-//W3C//DTD SVG 1.1//EN" "http://www.w3.org/Graphics/SVG/1.1/DTD/svg11.dtd">
<svg width="100%" height="100%" viewBox="0 0 1748 2480" version="1.1" xmlns="http://www.w3.org/2000/svg" xmlns:xlink="http://www.w3.org/1999/xlink" xml:space="preserve" xmlns:serif="http://www.serif.com/" style="fill-rule:evenodd;clip-rule:evenodd;stroke-linecap:round;stroke-linejoin:round;stroke-miterlimit:1.5;">
    <g id="Layer5">
        <path d="M669.631,697.638C715.321,697.928 752.326,735.111 752.326,780.869C752.326,783.929 752.16,786.95 751.839,789.919C797.973,805.112 835.946,838.345 857.396,881.26L857.982,881.199C864.04,880.586 870.189,880.272 876.41,880.272L876.996,880.273C976.763,880.597 1057.65,961.682 1057.65,1061.51C1057.65,1064.28 1057.59,1067.04 1057.46,1069.77L1057.77,1069.57C1070.7,1061.3 1086.06,1056.5 1102.53,1056.5L1103.07,1056.51C1148.24,1056.79 1184.92,1093.14 1185.75,1138.18C1194.26,1148.27 1200.41,1160.4 1203.36,1173.74C1240.64,1181.99 1268.55,1215.26 1268.55,1255.01C1268.55,1273.85 1262.28,1291.23 1251.71,1305.19C1281.76,1317.75 1302.88,1347.43 1302.88,1382.01C1302.88,1386.32 1302.56,1390.55 1301.92,1394.69C1329.98,1426.62 1347,1468.46 1347,1514.26C1347,1517.2 1346.93,1520.12 1346.8,1523.02C1357.05,1526.34 1366.91,1530.55 1376.27,1535.56L1376.27,1535.36C1376.27,1513.13 1394.94,1495.09 1417.94,1495.09C1438.73,1495.09 1455.99,1509.83 1459.11,1529.08C1460.06,1529.05 1461,1529.03 1461.95,1529.03L1462.49,1529.03C1508.18,1529.32 1545.19,1566.51 1545.19,1612.26C1545.19,1612.44 1545.19,1612.63 1545.19,1612.81L1545.19,1612.84L1545.18,1612.98L1545.18,1613.27L1545.18,1613.35L1545.18,1613.41L1545.18,1613.56L1545.17,1613.77L1545.17,1613.89L1545.17,1613.99L1545.17,1614.11L1545.16,1614.27L1545.16,1614.44L1545.16,1614.56L1545.15,1614.65L1545.15,1614.77L1545.14,1614.99L1545.14,1615.14L1545.14,1615.2L1545.13,1615.27L1545.12,1615.57L1545.12,1615.71L1545.12,1615.74C1545.11,1615.91 1545.1,1616.09 1545.09,1616.27L1545.09,1616.28L1545.09,1616.34L1545.07,1616.76L1545.07,1616.81L1545.06,1616.85L1545.06,1616.99L1545.04,1617.26L1545.04,1617.35L1545.03,1617.42L1545.02,1617.55L1545.01,1617.76L1545,1617.88L1544.99,1617.98L1544.99,1618.1L1544.98,1618.25L1544.96,1618.42L1544.95,1618.55L1544.95,1618.64L1544.94,1618.74L1544.92,1618.97L1544.91,1619.12L1544.9,1619.17L1544.9,1619.24L1544.87,1619.55L1544.86,1619.68L1544.86,1619.7C1544.84,1619.88 1544.83,1620.06 1544.81,1620.23L1544.81,1620.24L1544.8,1620.34L1544.76,1620.71L1544.76,1620.76L1544.75,1620.81L1544.74,1620.95L1544.71,1621.2L1544.7,1621.29L1544.69,1621.37L1544.68,1621.5L1544.66,1621.69L1544.64,1621.82L1544.63,1621.93L1544.62,1622.04L1544.6,1622.18L1544.58,1622.36L1544.57,1622.49L1544.56,1622.57L1544.54,1622.66L1544.51,1622.9L1544.5,1623.04L1544.49,1623.09L1544.48,1623.15L1544.44,1623.48L1544.42,1623.6L1544.42,1623.62C1544.39,1623.79 1544.37,1623.97 1544.35,1624.14L1544.34,1624.16L1544.33,1624.27L1544.28,1624.61L1544.27,1624.66L1544.26,1624.71L1544.24,1624.86L1544.2,1625.09L1544.19,1625.18L1544.18,1625.26L1544.16,1625.39L1544.13,1625.57L1544.11,1625.71L1544.09,1625.82L1544.07,1625.92L1544.05,1626.05L1544.02,1626.23L1544,1626.37L1543.98,1626.44L1543.97,1626.53L1543.93,1626.77L1543.9,1626.92L1543.89,1626.96L1543.88,1627.01L1543.82,1627.35L1543.8,1627.46L1543.8,1627.48C1543.77,1627.65 1543.73,1627.82 1543.7,1627.99L1543.7,1628.01L1543.67,1628.15L1543.61,1628.44L1543.6,1628.5L1543.59,1628.56L1543.56,1628.7L1543.52,1628.92L1543.5,1629.01L1543.48,1629.1L1543.45,1629.23L1543.42,1629.39L1543.39,1629.53L1543.37,1629.64L1543.35,1629.75L1543.32,1629.87L1543.28,1630.05L1543.25,1630.19L1543.23,1630.26L1543.22,1630.34L1543.16,1630.57L1543.13,1630.73L1543.12,1630.77L1543.11,1630.81L1543.03,1631.15L1543.01,1631.27L1543,1631.28C1542.96,1631.44 1542.92,1631.61 1542.88,1631.77L1542.88,1631.8L1542.84,1631.97L1542.78,1632.22L1542.76,1632.28L1542.75,1632.34L1542.71,1632.5L1542.66,1632.68L1542.64,1632.78L1542.61,1632.88L1542.58,1633.01L1542.54,1633.15L1542.51,1633.28L1542.47,1633.41L1542.44,1633.52L1542.42,1633.62L1542.37,1633.79L1542.33,1633.94L1542.31,1634.02L1542.3,1634.08L1542.24,1634.29L1542.19,1634.47L1542.17,1634.52L1542.17,1634.54L1542.08,1634.84L1542.04,1635L1541.99,1635.17L1541.91,1635.47L1541.9,1635.49L1541.89,1635.53L1541.83,1635.72L1541.77,1635.92L1541.75,1635.98L1541.73,1636.06L1541.68,1636.23L1541.63,1636.38L1541.61,1636.47L1541.57,1636.58L1541.53,1636.73L1541.49,1636.84L1541.46,1636.96L1541.41,1637.11L1541.38,1637.22L1541.35,1637.3L1541.3,1637.44L1541.25,1637.63L1541.22,1637.71L1541.21,1637.75L1541.15,1637.92L1541.08,1638.15L1541.06,1638.2L1541.06,1638.21L1541.01,1638.35L1540.9,1638.67L1540.8,1638.97L1540.76,1639.11L1540.75,1639.13L1540.73,1639.19L1540.65,1639.42L1540.6,1639.56L1540.59,1639.61L1540.55,1639.7L1540.48,1639.9L1540.44,1640.01L1540.42,1640.08L1540.37,1640.22L1540.31,1640.38L1540.28,1640.46L1540.25,1640.55L1540.18,1640.73L1540.14,1640.86L1540.12,1640.91L1540.08,1641.01L1540,1641.24L1539.96,1641.33L1539.95,1641.35L1539.92,1641.44L1539.8,1641.75C1539.74,1641.92 1539.67,1642.09 1539.61,1642.26L1539.44,1642.68C1551.68,1651.86 1559.61,1666.54 1559.61,1683.06C1559.61,1696.99 1553.98,1709.61 1544.88,1718.72C1547.32,1724.39 1549.49,1730.2 1551.35,1736.15L1551.35,1736.15C1551.63,1737.05 1551.91,1737.95 1552.17,1738.86L1552.27,1739.18L1552.33,1739.38L1552.34,1739.41L1552.35,1739.44L1552.41,1739.66L1552.49,1739.92L1552.5,1739.95L1552.5,1739.97L1552.55,1740.13L1552.65,1740.5C1552.81,1741.04 1552.96,1741.59 1553.11,1742.13L1553.22,1742.51L1553.26,1742.66L1553.27,1742.69L1553.28,1742.74L1553.35,1742.98L1553.4,1743.19L1553.41,1743.24L1553.43,1743.29L1553.47,1743.46L1553.55,1743.74L1553.56,1743.79L1553.57,1743.82L1553.6,1743.94L1553.7,1744.33L1553.71,1744.35C1553.8,1744.71 1553.9,1745.07 1553.99,1745.44L1554.1,1745.86L1554.12,1745.97L1554.13,1746L1554.15,1746.07L1554.22,1746.34L1554.26,1746.49L1554.27,1746.55L1554.29,1746.62L1554.34,1746.82L1554.39,1747.03L1554.41,1747.11L1554.42,1747.16L1554.45,1747.3L1554.53,1747.59L1554.54,1747.66L1554.55,1747.69L1554.57,1747.78L1554.68,1748.22C1554.76,1748.58 1554.85,1748.94 1554.93,1749.3L1554.94,1749.33L1554.96,1749.41L1555.03,1749.71L1555.06,1749.83L1555.07,1749.89L1555.09,1749.98L1555.14,1750.2L1555.18,1750.37L1555.19,1750.44L1555.21,1750.52L1555.25,1750.68L1555.3,1750.91L1555.32,1751L1555.33,1751.06L1555.36,1751.17L1555.42,1751.48L1555.44,1751.56L1555.45,1751.59C1555.53,1751.95 1555.6,1752.31 1555.68,1752.67L1555.68,1752.68L1555.7,1752.75L1555.77,1753.11L1555.79,1753.2L1555.8,1753.25L1555.82,1753.35L1555.88,1753.6L1555.9,1753.73L1555.92,1753.81L1555.94,1753.91L1555.98,1754.09L1556.01,1754.27L1556.03,1754.37L1556.05,1754.45L1556.07,1754.58L1556.12,1754.82L1556.14,1754.93L1556.15,1754.98L1556.17,1755.07L1556.24,1755.41L1556.26,1755.5L1556.26,1755.52C1556.33,1755.88 1556.4,1756.24 1556.47,1756.6L1556.47,1756.63L1556.49,1756.74L1556.55,1757.03L1556.57,1757.13L1556.58,1757.19L1556.6,1757.31L1556.64,1757.52L1556.66,1757.67L1556.68,1757.76L1556.7,1757.86L1556.73,1758.01L1556.76,1758.21L1556.78,1758.33L1556.8,1758.4L1556.82,1758.5L1556.86,1758.77L1556.88,1758.89L1556.89,1758.93L1556.9,1759L1556.97,1759.41L1556.99,1759.47C1557.02,1759.65 1557.05,1759.83 1557.08,1760.02L1557.08,1760.03L1557.1,1760.13L1557.15,1760.48L1557.17,1760.55L1557.18,1760.6L1557.2,1760.73L1557.24,1760.97L1557.26,1761.09L1557.27,1761.17L1557.29,1761.29L1557.32,1761.47L1557.34,1761.63L1557.36,1761.74L1557.38,1761.83L1557.4,1761.96L1557.43,1762.18L1557.45,1762.31L1557.46,1762.38L1557.47,1762.46L1557.52,1762.76L1557.54,1762.88L1557.54,1762.91C1557.6,1763.28 1557.65,1763.64 1557.7,1764L1557.71,1764.03L1557.73,1764.16L1557.77,1764.45L1557.78,1764.54L1557.79,1764.6L1557.81,1764.74L1557.84,1764.95L1557.86,1765.08L1557.87,1765.18L1557.89,1765.29L1557.91,1765.44L1557.93,1765.63L1557.95,1765.75L1557.96,1765.84L1557.98,1765.94L1558.01,1766.19L1558.03,1766.33L1558.04,1766.38L1558.05,1766.44L1558.09,1766.8L1558.11,1766.9L1558.11,1766.92C1558.13,1767.1 1558.15,1767.28 1558.18,1767.47L1558.18,1767.48L1558.19,1767.58L1558.24,1767.94L1558.25,1768.01L1558.25,1768.06L1558.27,1768.2L1558.3,1768.45L1558.31,1768.55L1558.32,1768.63L1558.34,1768.76L1558.36,1768.95L1558.38,1769.1L1558.39,1769.21L1558.4,1769.32L1558.42,1769.45L1558.44,1769.66L1558.46,1769.79L1558.46,1769.86L1558.47,1769.95L1558.51,1770.23L1558.52,1770.37L1558.52,1770.41L1558.53,1770.45L1558.58,1770.92L1558.58,1770.95C1558.6,1771.14 1558.62,1771.32 1558.64,1771.5L1558.64,1771.53L1558.66,1771.67L1558.69,1771.97L1558.7,1772.05L1558.7,1772.11L1558.72,1772.25L1558.74,1772.47L1558.75,1772.6L1558.76,1772.69L1558.77,1772.81L1558.79,1772.98L1558.8,1773.15L1558.82,1773.28L1558.82,1773.37L1558.84,1773.48L1558.86,1773.71L1558.87,1773.86L1558.88,1773.92L1558.88,1773.99L1558.91,1774.31L1558.92,1774.44L1558.92,1774.46C1558.94,1774.65 1558.95,1774.83 1558.97,1775.01L1558.97,1775.02L1558.98,1775.12L1559.01,1775.51L1559.02,1775.56L1559.02,1775.61L1559.03,1775.75L1559.05,1776.01L1559.06,1776.11L1559.07,1776.19L1559.08,1776.33L1559.09,1776.52L1559.1,1776.67L1559.11,1776.78L1559.12,1776.89L1559.13,1777.03L1559.14,1777.23L1559.15,1777.36L1559.16,1777.44L1559.16,1777.54L1559.18,1777.8L1559.19,1777.95L1559.2,1777.99L1559.2,1778.05L1559.23,1778.45L1559.23,1778.54L1559.23,1778.55C1559.25,1778.73 1559.26,1778.91 1559.27,1779.1L1559.27,1779.12L1559.28,1779.26L1559.3,1779.58L1559.3,1779.65L1559.3,1779.71L1559.31,1779.86L1559.33,1780.09L1559.33,1780.2L1559.34,1780.3L1559.34,1780.42L1559.35,1780.6L1559.36,1780.76L1559.37,1780.89L1559.37,1780.98L1559.38,1781.11L1559.39,1781.33L1559.4,1781.48L1559.4,1781.54L1559.4,1781.62L1559.42,1781.93L1559.43,1782.07L1559.43,1782.1C1559.44,1782.28 1559.44,1782.47 1559.45,1782.65L1559.47,1783.16L1559.47,1783.2L1559.48,1783.25L1559.48,1783.39L1559.49,1783.67L1559.5,1783.76L1559.5,1783.84L1559.5,1783.98L1559.51,1784.18L1559.51,1784.32L1559.52,1784.43L1559.52,1784.54L1559.53,1784.7L1559.53,1784.89L1559.54,1785.02L1559.54,1785.11L1559.54,1785.21L1559.55,1785.46L1559.55,1785.61L1559.55,1785.66L1559.56,1785.72L1559.56,1786.1L1559.57,1786.21L1559.57,1786.22C1559.57,1786.41 1559.58,1786.59 1559.58,1786.78L1559.58,1786.8L1559.58,1786.92L1559.59,1787.27L1559.59,1787.34L1559.59,1787.39L1559.59,1787.54L1559.6,1787.79L1559.6,1787.9L1559.6,1787.99L1559.6,1788.12L1559.6,1788.3L1559.6,1788.46L1559.6,1788.58L1559.61,1788.68L1559.61,1788.82L1559.61,1789.03L1559.61,1789.18L1559.61,1789.25L1559.61,1789.33L1559.61,1789.63L1559.61,1789.77L1559.61,1789.81L1559.61,1789.85L1559.61,1790.37C1559.61,1890.2 1478.73,1971.28 1378.96,1971.61L1378.37,1971.61C1377.57,1971.61 1376.78,1971.6 1375.99,1971.59C1368.96,1975.08 1361.07,1977.06 1352.71,1977.12L1352.31,1977.12L409.873,1977.12C405.868,1977.12 401.966,1976.68 398.214,1975.84L397.851,1975.76C397.279,1975.77 396.706,1975.78 396.132,1975.78L395.558,1975.78C325.268,1975.78 268.201,1918.71 268.201,1848.42C268.201,1828.97 272.574,1810.53 280.39,1794.02C272.574,1777.52 268.201,1759.08 268.201,1739.62C268.201,1678.29 311.653,1627.02 369.436,1614.95C369.349,1613.01 369.305,1611.08 369.305,1609.13C369.305,1541.46 422.194,1486.05 488.845,1482.01C484.837,1472.26 482.628,1461.59 482.628,1450.41C482.628,1420.07 498.898,1393.5 523.183,1378.95C523.005,1375.81 522.915,1372.63 522.915,1369.43C522.915,1334.14 533.919,1301.4 552.681,1274.46C526.01,1261.88 504.623,1239.91 492.784,1212.84C471.822,1197.72 458.166,1173.08 458.166,1145.29C458.166,1130.72 461.919,1117.01 468.507,1105.1C439.568,1082.79 420.911,1047.77 420.911,1008.43C420.911,993.054 423.762,978.336 428.966,964.779C398.213,952.547 376.449,922.498 376.449,887.407C376.449,855.471 394.474,827.712 420.894,813.759C430.221,754.042 481.932,708.294 544.244,708.294L544.781,708.295C567.511,708.391 588.816,714.574 607.149,725.299L607.508,724.902C622.734,708.157 644.695,697.637 669.093,697.637L669.631,697.638Z" style="fill:white;"/>
    </g>
    <g id="Layer6">
        <g transform="matrix(-0.501759,-0.437019,0.402518,-0.462147,888.935,2277.5)">
            <path d="M947.549,1175.81C863.821,1175.81 795.844,1243.79 795.844,1327.52C795.844,1411.25 863.821,1479.22 947.549,1479.22C884.753,1466.58 833.77,1402.96 833.77,1327.52C833.77,1252.08 884.753,1188.46 947.549,1175.81Z" style="fill:white;"/>
        </g>
        <g transform="matrix(-0.438125,-0.381596,0.299974,-0.344412,644.006,1797.38)">
            <path d="M947.549,1175.81C863.821,1175.81 795.844,1243.79 795.844,1327.52C795.844,1411.25 863.821,1479.22 947.549,1479.22C884.753,1466.58 833.77,1402.96 833.77,1327.52C833.77,1252.08 884.753,1188.46 947.549,1175.81Z" style="fill:rgb(207,208,209);stroke:rgb(209,209,209);stroke-opacity:0;stroke-width:1.91px;"/>
        </g>
        <g transform="matrix(-0.443546,-0.386317,0.37713,-0.432998,581.749,2585.49)">
            <path d="M947.549,1175.81C863.821,1175.81 795.844,1243.79 795.844,1327.52C795.844,1411.25 863.821,1479.22 947.549,1479.22C884.753,1466.58 833.77,1402.96 833.77,1327.52C833.77,1252.08 884.753,1188.46 947.549,1175.81Z" style="fill:rgb(207,208,209);stroke:rgb(209,209,209);stroke-opacity:0;stroke-width:1.72px;"/>
        </g>
        <g transform="matrix(-0.26522,-0.231,0.225507,-0.258913,1322.93,2258.43)">
            <path d="M947.549,1175.81C863.821,1175.81 795.844,1243.79 795.844,1327.52C795.844,1411.25 863.821,1479.22 947.549,1479.22C884.753,1466.58 833.77,1402.96 833.77,1327.52C833.77,1252.08 884.753,1188.46 947.549,1175.81Z" style="fill:rgb(207,208,209);stroke:rgb(209,209,209);stroke-opacity:0;stroke-width:2.88px;"/>
        </g>
        <g transform="matrix(-0.573291,-0.499322,0.459902,-0.528032,896.558,2450.84)">
            <path d="M947.549,1175.81C863.821,1175.81 795.844,1243.79 795.844,1327.52C795.844,1411.25 863.821,1479.22 947.549,1479.22C884.753,1466.58 833.77,1402.96 833.77,1327.52C833.77,1252.08 884.753,1188.46 947.549,1175.81Z" style="fill:rgb(207,208,209);stroke:rgb(209,209,209);stroke-opacity:0;stroke-width:1.37px;"/>
        </g>
        <path d="M1302.58,1395.44C1330.25,1427.27 1347,1468.82 1347,1514.26C1347,1517.2 1346.93,1520.12 1346.8,1523.02C1357.03,1526.33 1366.87,1530.53 1376.21,1535.53L1330.75,1681.5L1180.04,1776.11L1064.58,1722.64L1019.27,1684.36L1047.71,1637.31L1301.92,1394.69L1302.58,1395.44Z" style="fill:rgb(213,213,213);"/>
        <path d="M1539.44,1642.68C1553.56,1653.72 1559.61,1671 1559.61,1683.06C1559.61,1696.99 1553.98,1709.61 1544.88,1718.72C1554.36,1740.7 1559.61,1764.93 1559.61,1790.37C1559.61,1890.4 1478.4,1971.61 1378.37,1971.61C1377.57,1971.61 1376.78,1971.6 1375.99,1971.59C1368.85,1975.13 1360.81,1977.12 1352.31,1977.12L1316.03,1977.12C1591.38,1884.31 1509.62,1702.51 1509.62,1702.51C1545.76,1697.39 1542.34,1675.59 1543.33,1674.65C1547.67,1670.51 1543.12,1659.13 1539.44,1642.68Z" style="fill:rgb(198,198,198);"/>
    </g>
    <g id="Layer4">
    </g>
    <path d="M1224.02,1397.56C1225.83,1376.89 1243.79,1360.64 1265.64,1360.64C1288.7,1360.64 1307.42,1378.73 1307.42,1401.01C1307.42,1417.99 1296.54,1432.54 1281.14,1438.49C1279.33,1459.16 1261.37,1475.41 1239.52,1475.41C1239.35,1475.41 1239.18,1475.41 1239.01,1475.41C1239.34,1477.47 1239.52,1479.58 1239.52,1481.73C1239.52,1498.46 1228.95,1512.84 1213.92,1518.95C1220.25,1529.68 1223.87,1542.1 1223.87,1555.32C1223.87,1590.49 1198.29,1619.92 1164.15,1627.19C1167.59,1634.12 1169.95,1641.64 1171,1649.55C1184.7,1636.78 1203.34,1628.92 1223.87,1628.92C1224.93,1628.92 1225.98,1628.94 1227.04,1628.98C1236.42,1598.6 1265.57,1576.43 1300.04,1576.43C1304.47,1576.43 1308.82,1576.8 1313.04,1577.51C1311.95,1573.91 1311.37,1570.11 1311.37,1566.18C1311.37,1543.96 1330.04,1525.91 1353.04,1525.91C1376.04,1525.91 1394.72,1543.96 1394.72,1566.18C1394.72,1585.82 1380.13,1602.2 1360.86,1605.73C1370.5,1618.06 1376.21,1633.4 1376.21,1650.03C1376.21,1690.65 1342.08,1723.62 1300.04,1723.62C1298.98,1723.62 1297.93,1723.6 1296.88,1723.56C1287.49,1753.94 1258.34,1776.11 1223.87,1776.11C1216.89,1776.11 1210.12,1775.2 1203.7,1773.49C1189.77,1788.08 1169.83,1797.22 1147.7,1797.22C1107.51,1797.22 1074.54,1767.08 1071.72,1728.94C1041.28,1719.3 1019.27,1691.61 1019.27,1658.99C1019.27,1623.83 1044.85,1594.39 1078.99,1587.12C1074.21,1577.49 1071.53,1566.71 1071.53,1555.32C1071.53,1514.7 1105.66,1481.73 1147.7,1481.73C1150.49,1481.73 1153.25,1481.87 1155.97,1482.16C1155.97,1482.01 1155.97,1481.87 1155.97,1481.73C1155.97,1459.45 1174.69,1441.37 1197.74,1441.37C1197.91,1441.37 1198.09,1441.37 1198.26,1441.37C1197.92,1439.31 1197.74,1437.2 1197.74,1435.05C1197.74,1418.07 1208.63,1403.52 1224.02,1397.56Z" style="fill:white;"/>
</svg>
