<?xml version="1.0" encoding="UTF-8" standalone="no"?>
<!DOCTYPE svg PUBLIC "-//W3C//DTD SVG 1.1//EN" "http://www.w3.org/Graphics/SVG/1.1/DTD/svg11.dtd">
<svg width="100%" height="100%" viewBox="0 0 1748 2480" version="1.1" xmlns="http://www.w3.org/2000/svg" xmlns:xlink="http://www.w3.org/1999/xlink" xml:space="preserve" xmlns:serif="http://www.serif.com/" style="fill-rule:evenodd;clip-rule:evenodd;stroke-linecap:round;stroke-linejoin:round;stroke-miterlimit:1.5;">
    <g id="Layer3">
        <g transform="matrix(1,0,0,1,32.3926,0)">
            <path d="M619.503,772.992C615.723,758.352 613.716,743.035 613.716,727.263C613.716,624.445 699.007,540.971 804.061,540.971C874.574,540.971 936.183,578.577 969.066,634.384C1026.21,640.758 1070.67,688.303 1070.67,745.931C1070.67,757.432 1068.9,768.531 1065.61,778.975C1114.73,791.678 1150.98,835.495 1150.98,887.534C1150.98,902.604 1147.94,916.984 1142.42,930.124C1211.96,957.878 1261.02,1024.73 1261.02,1102.71C1261.02,1125.58 1256.79,1147.5 1249.07,1167.77C1284.92,1194.45 1310.82,1233.28 1320.35,1277.96C1321.68,1277.92 1323.02,1277.89 1324.36,1277.89C1379.42,1277.89 1425.48,1315.95 1436.54,1366.62C1437.38,1366.6 1438.23,1366.59 1439.07,1366.59C1502.39,1366.59 1553.79,1416.9 1553.79,1478.87C1553.79,1513.74 1537.51,1544.92 1511.99,1565.52C1519.41,1580.38 1523.57,1597.07 1523.57,1614.72C1523.57,1657.04 1499.59,1693.93 1464.2,1713.07C1467.33,1726.47 1468.99,1740.42 1468.99,1754.74C1468.99,1857.56 1383.69,1941.03 1278.64,1941.03C1272.51,1941.03 1266.44,1940.75 1260.47,1940.19C1257.15,1940.75 1253.74,1941.03 1250.26,1941.03L357.864,1941.03C353.345,1941.03 348.939,1940.55 344.692,1939.63C250.711,1928.29 177.845,1849.78 177.845,1754.74C177.845,1664.52 243.519,1589.19 330.595,1572.09C330.571,1570.87 330.56,1569.66 330.56,1568.45C330.56,1510.11 358.018,1458 400.97,1423.83C390.792,1407.07 384.944,1387.49 384.944,1366.59C384.944,1304.63 436.347,1254.32 499.66,1254.32C500.312,1254.32 500.963,1254.32 501.618,1254.33C512.209,1183 564.151,1124.72 632.851,1103.56C623.627,1081.69 618.537,1057.73 618.537,1032.61C618.537,1004.88 624.741,978.555 635.863,954.898C602.106,935.345 579.449,899.344 579.449,858.205C579.449,824.136 594.988,793.591 619.503,772.992ZM922.49,873.072C920.194,874.86 917.856,876.598 915.476,878.283C917.568,879.67 919.63,881.097 921.655,882.559C921.798,879.361 922.078,876.197 922.49,873.072Z" style="fill:white;stroke:white;stroke-width:1px;"/>
        </g>
        <g transform="matrix(-0.506312,-0.390755,0.390755,-0.506312,545.214,2731.15)">
            <path d="M932.58,1269.01C828.541,1269.01 744.074,1353.48 744.074,1457.52C744.074,1561.56 828.541,1646.02 932.58,1646.02C854.55,1630.31 791.2,1551.25 791.2,1457.52C791.2,1363.78 854.55,1284.72 932.58,1269.01Z" style="fill:rgb(223,223,223);"/>
        </g>
        <g transform="matrix(-0.39821,-0.307326,0.317034,-0.41079,792.189,1770.85)">
            <path d="M932.58,1269.01C828.541,1269.01 744.074,1353.48 744.074,1457.52C744.074,1561.56 828.541,1646.02 932.58,1646.02C854.55,1630.31 791.2,1551.25 791.2,1457.52C791.2,1363.78 854.55,1284.72 932.58,1269.01Z" style="fill:rgb(223,223,223);"/>
        </g>
        <g transform="matrix(-0.551173,-0.425377,0.425377,-0.551173,875.199,2544.94)">
            <path d="M932.58,1269.01C828.541,1269.01 744.074,1353.48 744.074,1457.52C744.074,1561.56 828.541,1646.02 932.58,1646.02C854.55,1630.31 791.2,1551.25 791.2,1457.52C791.2,1363.78 854.55,1284.72 932.58,1269.01Z" style="fill:rgb(223,223,223);"/>
        </g>
        <g transform="matrix(-0.32902,-0.253927,0.253927,-0.32902,1121.43,2373.08)">
            <path d="M932.58,1269.01C828.541,1269.01 744.074,1353.48 744.074,1457.52C744.074,1561.56 828.541,1646.02 932.58,1646.02C854.55,1630.31 791.2,1551.25 791.2,1457.52C791.2,1363.78 854.55,1284.72 932.58,1269.01Z" style="fill:rgb(223,223,223);"/>
        </g>
        <path d="M1517.64,1558.6C1613.53,1455.17 1561.61,1419.71 1582.24,1449.58C1594.61,1467.5 1586.18,1455.63 1586.18,1478.87C1586.18,1513.74 1569.9,1544.92 1544.38,1565.52C1551.8,1580.38 1555.97,1597.07 1555.97,1614.72C1555.97,1657.04 1531.98,1693.93 1496.59,1713.07C1499.72,1726.47 1501.38,1740.42 1501.38,1754.74C1501.38,1857.56 1416.09,1941.03 1311.03,1941.03C1304.9,1941.03 1298.83,1940.75 1292.86,1940.19C1289.54,1940.75 1266.13,1941.03 1262.65,1941.03L1237.55,1941.03C1505.76,1870.38 1419.44,1698.23 1419.44,1698.23C1558.96,1670.62 1517.64,1558.6 1517.64,1558.6Z" style="fill:rgb(198,198,198);stroke:rgb(69,158,253);stroke-width:1px;"/>
    </g>
    <g id="Layer4">
    </g>
</svg>
